<svg width="40" height="27" viewBox="0 0 40 27" fill="none" xmlns="http://www.w3.org/2000/svg">
    <path d="M24.3511 0.0444431L21.0089 11.8844L24.4222 26H21.4356L20.2622 19.9911L19.4089 14.3378H19.0889L17.9867 26H15L18.5556 12.4533L15.1422 0.0444431H18.1289L19.3022 5.37778L20.1556 9.96444H20.5467L21.3644 0.0444431H24.3511Z"
          fill="white" fill-opacity="0.8"/>
    <path d="M27.5333 20.7467V16.2667H28.5333V26H27.5333V21.0133H26.4V26H25.4V16.2667H26.4V20.7467H27.5333ZM33.0308 16.2667H34.0308V24.3333C34.0308 25.64 33.3108 26.1333 32.4442 26.1333C31.5242 26.1333 31.0175 25.72 31.0175 24.5733V16.2667H32.0175V24.12C32.0175 25.08 32.2842 25.2267 32.6042 25.2267C32.9508 25.2267 33.0308 24.9333 33.0308 24.4667V16.2667ZM38.1461 20.8933L39.0394 20.8133C39.4394 21.1067 39.5861 21.8667 39.5861 22.7867V24.32C39.5861 25.5333 38.8928 26 37.7061 26H36.5061V16.2667H37.7061C38.7728 16.2667 39.3861 16.7333 39.3861 17.9467V18.8667C39.3861 19.8933 38.8528 20.4 38.1461 20.76V20.8933ZM37.6128 17.1733H37.5061V20.7867L37.7594 20.68C38.2661 20.4533 38.3861 20.1333 38.3861 19.6667V18.28C38.3861 17.4133 38.1861 17.1733 37.6128 17.1733ZM38.5861 23.9867V21.96C38.5861 21.36 38.3461 21.08 37.8794 21.08C37.7328 21.08 37.6128 21.1333 37.5061 21.2133V25.0933H37.6128C38.3328 25.0933 38.5861 24.8533 38.5861 23.9867Z"
          fill="white" fill-opacity="0.8"/>
    <path d="M2.04 20.8933L2.93333 20.8133C3.33333 21.1067 3.48 21.8667 3.48 22.7867V24.32C3.48 25.5333 2.78667 26 1.6 26H0.4V16.2667H1.6C2.66667 16.2667 3.28 16.7333 3.28 17.9467V18.8667C3.28 19.8933 2.74667 20.4 2.04 20.76V20.8933ZM1.50667 17.1733H1.4V20.7867L1.65333 20.68C2.16 20.4533 2.28 20.1333 2.28 19.6667V18.28C2.28 17.4133 2.08 17.1733 1.50667 17.1733ZM2.48 23.9867V21.96C2.48 21.36 2.24 21.08 1.77333 21.08C1.62667 21.08 1.50667 21.1333 1.4 21.2133V25.0933H1.50667C2.22667 25.0933 2.48 24.8533 2.48 23.9867ZM7.69547 26H6.57547L6.2288 23.2667H5.2288L5.05547 26H3.85547L5.32214 17.6133L4.7488 16.2667H6.0688L7.69547 26ZM5.5488 18.4L5.25547 23H6.1888L5.9488 21.0667L5.69547 18.4H5.5488ZM9.73922 20.8933L10.6326 20.8133C11.0326 21.1067 11.1792 21.8667 11.1792 22.7867V24.32C11.1792 25.5333 10.4859 26 9.29922 26H8.09922V16.2667H9.29922C10.3659 16.2667 10.9792 16.7333 10.9792 17.9467V18.8667C10.9792 19.8933 10.4459 20.4 9.73922 20.76V20.8933ZM9.20589 17.1733H9.09922V20.7867L9.35255 20.68C9.85922 20.4533 9.97922 20.1333 9.97922 19.6667V18.28C9.97922 17.4133 9.77922 17.1733 9.20589 17.1733ZM10.1792 23.9867V21.96C10.1792 21.36 9.93922 21.08 9.47255 21.08C9.32589 21.08 9.20589 21.1333 9.09922 21.2133V25.0933H9.20589C9.92589 25.0933 10.1792 24.8533 10.1792 23.9867ZM13.7332 16.2667H14.9332L13.5466 23.3067V26H12.5466V23.2933L11.2266 16.2667H12.3466L12.8799 19.96L13.1332 22.32H13.2799L13.7332 16.2667Z"
          fill="white" fill-opacity="0.8"/>
</svg>
